<svg xmlns="http://www.w3.org/2000/svg" width="19" height="20" viewBox="0 0 19 20"><g><g opacity=".6"><path fill="#141029" d="M7.056 9h4.798L9.455 2.546zM5.41 13.371a1.246 1.246 0 0 1-1.144.772c-.887 0-1.492-.913-1.145-1.723L8.11.887C8.341.347 8.869 0 9.46 0c.591 0 1.119.347 1.35.887l4.989 11.533a1.236 1.236 0 0 1-1.132 1.723c-.501 0-.951-.309-1.144-.772l-.849-2.057H6.246zm-3.664 3.343h15.428a1.292 1.292 0 0 1 0 2.581H1.746c-.707 0-1.286-.58-1.286-1.29 0-.71.579-1.29 1.286-1.29z"/></g></g></svg>