<svg xmlns="http://www.w3.org/2000/svg" width="20" height="14" viewBox="0 0 20 14"><g><g opacity=".6"><path fill="#141029" d="M14.5 8c-.44 0-.85-.12-1.21-.32A2.511 2.511 0 0 1 12 5.5a2.5 2.5 0 0 1 5 0c0 .94-.53 1.75-1.29 2.18-.36.2-.77.32-1.21.32zm5.5 4.5V14H9v-1.5c0-1.99 3.66-3 5.5-3 1.84 0 5.5 1.01 5.5 3zm-13 0V14H0v-1.5C0 10.17 4.66 9 7 9c.56 0 1.25.07 1.98.2-.71.48-1.3 1.08-1.64 1.81-.11 0-.23-.01-.34-.01-1.53 0-3.24.5-4.23 1h4.28c-.03.16-.05.33-.05.5zm-1.5-9C5.5 4.33 6.17 5 7 5s1.5-.67 1.5-1.5S7.83 2 7 2s-1.5.67-1.5 1.5zm-2 0C3.5 1.57 5.07 0 7 0s3.5 1.57 3.5 3.5S8.93 7 7 7 3.5 5.43 3.5 3.5z"/></g></g></svg>