<svg xmlns="http://www.w3.org/2000/svg" width="22" height="11" viewBox="0 0 22 11"><g><g><path fill="#141029" d="M9.9 9.9c0 .605-.495 1.1-1.1 1.1H5.5A5.502 5.502 0 0 1 0 5.5C0 2.464 2.464 0 5.5 0h3.3c.605 0 1.1.495 1.1 1.1 0 .605-.495 1.1-1.1 1.1H5.5a3.31 3.31 0 0 0-3.3 3.3 3.31 3.31 0 0 0 3.3 3.3h3.3c.605 0 1.1.495 1.1 1.1zM7.7 4.4h6.6c.605 0 1.1.495 1.1 1.1 0 .605-.495 1.1-1.1 1.1H7.7c-.605 0-1.1-.495-1.1-1.1 0-.605.495-1.1 1.1-1.1zM22 5.5c0 3.036-2.464 5.5-5.5 5.5h-3.3c-.605 0-1.1-.495-1.1-1.1 0-.605.495-1.1 1.1-1.1h3.3a3.31 3.31 0 0 0 3.3-3.3 3.31 3.31 0 0 0-3.3-3.3h-3.3c-.605 0-1.1-.495-1.1-1.1 0-.605.495-1.1 1.1-1.1h3.3C19.536 0 22 2.464 22 5.5z"/></g></g></svg>