<svg xmlns="http://www.w3.org/2000/svg" width="18" height="18" viewBox="0 0 18 18"><g><g opacity=".6"><path fill="#141029" d="M18 2v14c0 1.1-.9 2-2 2H2c-1.1 0-2-.9-2-2v-3c0-.55.45-1 1-1s1 .45 1 1v2c0 .55.45 1 1 1h12c.55 0 1-.45 1-1V3c0-.55-.45-1-1-1H3c-.55 0-1 .45-1 1v2c0 .55-.45 1-1 1s-1-.45-1-1V2a2 2 0 0 1 2-2h14c1.1 0 2 .9 2 2zM7.79 11.872l1.88-1.878H1c-.55 0-1-.45-1-.999 0-.55.45-.999 1-.999h8.67L7.79 6.108A.997.997 0 0 1 9.2 4.7l3.59 3.586a.994.994 0 0 1 0 1.408L9.2 13.28a.997.997 0 0 1-1.41 0 1.003 1.003 0 0 1 0-1.408z"/></g></g></svg>