<svg xmlns="http://www.w3.org/2000/svg" width="13" height="16" viewBox="0 0 13 16"><g><g opacity=".6"><g opacity=".6"><path fill="#141029" d="M9.074 5.032a.645.645 0 0 0-.849.284.605.605 0 0 0 .294.82c1.542.724 2.5 2.204 2.5 3.862 0 2.368-1.994 4.294-4.445 4.294-2.45 0-4.444-1.926-4.444-4.294 0-1.656.958-3.136 2.5-3.863a.605.605 0 0 0 .293-.82.645.645 0 0 0-.85-.283C2.092 5.967.86 7.87.86 9.998c0 3.044 2.563 5.521 5.714 5.521 3.151 0 5.715-2.477 5.715-5.521 0-2.132-1.232-4.035-3.215-4.966z"/></g><g opacity=".6"><path fill="#141029" d="M5.442 3.113l.498-.48v7.003c0 .334.281.604.628.604.346 0 .628-.27.628-.604V2.633l.498.48a.638.638 0 0 0 .444.177c.16 0 .32-.06.444-.177a.588.588 0 0 0 0-.855L7.012.747a.645.645 0 0 0-.888 0l-1.57 1.511a.588.588 0 0 0 0 .855.645.645 0 0 0 .888 0z"/></g></g></g></svg>