<svg xmlns="http://www.w3.org/2000/svg" width="21" height="24" viewBox="0 0 21 24"><g><g opacity=".6"><path fill="#141029" d="M2.096 20.571l.744-1.885a7.77 7.77 0 0 0 .544-2.864v-5.536c0-3.782 3.035-6.857 6.765-6.857 3.73 0 6.765 3.075 6.765 6.857v5.536c0 .986.183 1.95.544 2.864l.744 1.885zm16.52-4.749v-5.536c0-3.84-2.524-7.061-5.967-8.148C12.445.927 11.407 0 10.154 0 8.9 0 7.864.927 7.659 2.138a8.542 8.542 0 0 0-5.967 8.148v5.536c0 .767-.142 1.517-.424 2.228L.06 21.11a.868.868 0 0 0 .085.799c.158.236.42.377.701.377h6.432c.6 1.033 1.67 1.714 2.876 1.714 1.205 0 2.275-.681 2.875-1.714h6.433c.28 0 .542-.14.7-.377a.868.868 0 0 0 .085-.799l-1.208-3.06a6.026 6.026 0 0 1-.424-2.228z"/></g></g></svg>