<svg xmlns="http://www.w3.org/2000/svg" width="20" height="20" viewBox="0 0 20 20"><g><g opacity=".6"><path fill="#141029" d="M9.73 13.133c-1.93 0-3.5-1.532-3.5-3.416 0-1.883 1.57-3.415 3.5-3.415s3.5 1.532 3.5 3.415c0 1.884-1.57 3.416-3.5 3.416zm7.43-2.458c.04-.313.07-.625.07-.958 0-.332-.03-.644-.07-.957l2.11-1.611c.19-.147.24-.41.12-.626l-2-3.379a.508.508 0 0 0-.61-.215l-2.49.977a7.35 7.35 0 0 0-1.69-.957L12.22.36a.484.484 0 0 0-.49-.41h-4c-.25 0-.46.176-.49.41L6.86 2.95a7.73 7.73 0 0 0-1.69.957l-2.49-.977a.493.493 0 0 0-.61.215l-2 3.38a.474.474 0 0 0 .12.625L2.3 8.76a7.57 7.57 0 0 0-.07.957c0 .323.03.645.07.958L.19 12.286a.485.485 0 0 0-.12.625l2 3.38c.12.215.39.293.61.215l2.49-.977c.52.39 1.08.713 1.69.957l.38 2.589c.03.234.24.41.49.41h4c.25 0 .46-.176.49-.41l.38-2.589a7.73 7.73 0 0 0 1.69-.957l2.49.977c.23.088.49 0 .61-.215l2-3.38a.485.485 0 0 0-.12-.625z"/></g></g></svg>