<svg xmlns="http://www.w3.org/2000/svg" width="34" height="34" viewBox="0 0 34 34"><g><g><path fill="#4680c2" d="M27.207 24.329h-2.415c-.913 0-1.196-.727-2.838-2.391-1.43-1.385-2.062-1.572-2.414-1.572-.493 0-.634.141-.634.821v2.18c0 .588-.187.94-1.735.94-2.555 0-5.393-1.548-7.386-4.434-3.001-4.22-3.823-7.387-3.823-8.043 0-.352.14-.68.82-.68h2.415c.61 0 .845.281 1.08.937 1.195 3.448 3.188 6.473 4.01 6.473.304 0 .445-.14.445-.913V14.08c-.094-1.642-.962-1.782-.962-2.368 0-.282.235-.563.609-.563h3.799c.516 0 .703.28.703.89v4.809c0 .515.235.703.375.703.305 0 .564-.188 1.126-.75 1.736-1.947 2.978-4.949 2.978-4.949.164-.352.445-.68 1.056-.68h2.414c.727 0 .892.374.727.89-.305 1.409-3.259 5.582-3.259 5.582-.257.422-.352.61 0 1.08.258.352 1.102 1.078 1.666 1.735 1.031 1.173 1.827 2.157 2.039 2.838.235.679-.118 1.03-.798 1.03zM22.097.62H11.893C2.584.62.38 2.824.38 12.134v10.202c0 9.31 2.204 11.515 11.514 11.515h10.202c9.31 0 11.515-2.205 11.515-11.515V12.134C33.61 2.824 31.383.62 22.096.62z"/></g></g></svg>