<svg xmlns="http://www.w3.org/2000/svg" width="34" height="34" viewBox="0 0 34 34"><g><g><path fill="#25d366" d="M28.772 5.45a16.33 16.33 0 0 1 4.839 11.646c-.004 9.083-7.427 16.47-16.545 16.47h-.008a16.701 16.701 0 0 1-7.906-2.003L.38 33.851l2.348-8.532A16.388 16.388 0 0 1 .52 17.087C.524 8.006 7.944.62 17.058.62c4.424 0 8.577 1.724 11.734 4.776m-11.709 25.35c7.578 0 13.745-6.15 13.75-13.691 0-3.657-1.43-7.107-4.026-9.682a13.649 13.649 0 0 0-9.717-4.03c-7.594 0-13.76 6.15-13.76 13.691 0 2.589.728 5.103 2.098 7.286l.331.52-1.39 5.048 5.19-1.35.497.296a13.837 13.837 0 0 0 6.997 1.911h.022m7.543-10.315c.416.187.687.29.79.477.103.187.103.997-.25 1.973-.345.977-1.996 1.849-2.79 1.975-.713.102-1.614.147-2.603-.168-.6-.206-1.37-.455-2.358-.87-4.146-1.787-6.854-5.94-7.06-6.21-.206-.291-1.687-2.244-1.687-4.258 0-2.015 1.068-3.012 1.446-3.427a1.56 1.56 0 0 1 1.103-.497c.277 0 .553 0 .79.02.257 0 .599-.102.931.707.346.811 1.172 2.846 1.276 3.054.103.206.173.435.035.726-.143.27-.21.436-.411.686-.208.247-.436.538-.625.725-.206.207-.42.436-.18.851.244.416 1.07 1.766 2.298 2.866 1.578 1.413 2.911 1.849 3.327 2.056.41.187.652.167.894-.103.24-.275 1.034-1.2 1.306-1.61.277-.415.554-.347.932-.207.378.137 2.407 1.13 2.824 1.338"/></g></g></svg>