<svg xmlns="http://www.w3.org/2000/svg" width="33" height="32" viewBox="0 0 33 32"><g><g><path fill="#00b2ff" d="M12.985 11.479c.66-.121 1.34.04 1.875.444l3.721 2.791a.919.919 0 0 0 1.143 0l5.038-3.815c.665-.505 1.555.293 1.09.997l-4.679 7.444c-.744 1.17-2.34 1.475-3.456.638l-3.721-2.791a.938.938 0 0 0-1.157 0L7.801 21c-.664.519-1.555-.292-1.09-.997l4.68-7.443c.356-.568.934-.96 1.594-1.082zM5.329 26.916c.258.232.41.558.425.904l.094 2.845a1.276 1.276 0 0 0 1.794 1.13l3.177-1.396c.267-.12.568-.143.85-.067 1.45.4 3.004.612 4.613.612 8.985 0 15.95-6.58 15.95-15.472S25.267 0 16.282 0C7.296 0 .332 6.58.332 15.472a15.14 15.14 0 0 0 4.997 11.444z"/></g></g></svg>