<svg xmlns="http://www.w3.org/2000/svg" width="33" height="34" viewBox="0 0 33 34"><g><g><path fill="#665cac" d="M17.334 10.792a.424.424 0 0 0 .412.436c1.374.069 2.04.761 2.124 2.187a.416.416 0 0 0 .416.402h.014a.417.417 0 0 0 .403-.443c-.098-1.856-1.111-2.896-2.916-2.992a.424.424 0 0 0-.453.41zm-.657-2.235c0 .23.188.414.417.414a5.244 5.244 0 0 1 3.674 1.592c.88.97 1.33 2.253 1.248 3.558 0 .23.187.414.416.414l.014.017a.416.416 0 0 0 .416-.417c.041-1.648-.472-3.032-1.484-4.14-1.012-1.107-2.426-1.73-4.228-1.855a.416.416 0 0 0-.058 0 .416.416 0 0 0-.415.417zM10.05 7.074h-.017a6.571 6.571 0 0 0-1.59 1.302c-.374.444-.583.885-.638 1.315-.033.252-.01.508.07.75l.027.013a19.014 19.014 0 0 0 1.662 3.602 21.311 21.311 0 0 0 3.213 4.394l.041.055.056.041.041.042.042.042a21.61 21.61 0 0 0 4.404 3.228c1.828.997 2.939 1.468 3.604 1.662v.014c.194.055.371.083.551.083a2.548 2.548 0 0 0 1.526-.654c.54-.485.97-1.022 1.288-1.59v-.014c.319-.596.208-1.165-.249-1.553a18.88 18.88 0 0 0-2.978-2.134c-.706-.388-1.426-.152-1.717.236l-.623.788c-.319.388-.9.333-.9.333l-.017.013c-4.321-1.108-5.47-5.484-5.47-5.484s-.056-.596.345-.9l.776-.624c.374-.305.637-1.026.236-1.732A18.733 18.733 0 0 0 11.6 7.323a1.167 1.167 0 0 0-.698-.415 1.322 1.322 0 0 0-.852.166zm6.323-1.122a.414.414 0 1 0 0 .83 7.806 7.806 0 0 1 5.584 2.201c1.51 1.468 2.247 3.434 2.274 6.01 0 .229.186.415.416.415v-.013c.23 0 .416-.186.416-.415a8.928 8.928 0 0 0-2.508-6.59c-1.65-1.607-3.73-2.438-6.183-2.438zm-.499-3.6a18.23 18.23 0 0 1 1.218.028c6.284.014 9.29 1.91 9.995 2.548 2.312 1.978 3.5 6.723 2.63 13.696-.83 6.757-5.772 7.186-6.685 7.477-.388.124-3.987 1.01-8.515.72 0 0-3.376 4.072-4.428 5.124-.166.18-.36.235-.485.208-.18-.042-.235-.263-.221-.568l.027-5.565c-6.603-1.827-6.216-8.725-6.147-12.325.083-3.6.762-6.552 2.769-8.546C8.74 2.7 13.61 2.366 15.873 2.352zm-.088-2.35c-2.665.037-8.4.474-11.608 3.414C1.797 5.783.964 9.274.868 13.596.783 17.904.687 25.99 8.482 28.192v3.351s-.053 1.343.833 1.62c1.094.346 1.717-.69 2.756-1.798l1.938-2.188c5.33.443 9.415-.58 9.886-.733 1.08-.346 7.173-1.122 8.17-9.21 1.025-8.35-.498-13.612-3.24-15.993l-.013-.003c-.831-.761-4.154-3.184-11.59-3.212 0 0-.548-.035-1.437-.022z"/></g></g></svg>