<svg xmlns="http://www.w3.org/2000/svg" width="34" height="34" viewBox="0 0 34 34"><g><g><path fill="#e4405f" d="M25.868 6.374a1.993 1.993 0 0 0 0 3.987 1.993 1.993 0 0 0 0-3.987zm-8.878 16.39a5.53 5.53 0 0 1-5.53-5.534 5.53 5.53 0 1 1 11.06 0 5.53 5.53 0 0 1-5.53 5.534zM17 8.704a8.535 8.535 0 0 0-8.534 8.536 8.535 8.535 0 1 0 17.069 0A8.535 8.535 0 0 0 17 8.703zm6.71-4.995c1.62.076 2.5.345 3.084.575.778.3 1.329.66 1.913 1.24.58.582.94 1.134 1.24 1.912.228.585.499 1.464.572 3.084.08 1.753.097 2.28.097 6.715 0 4.437-.02 4.964-.102 6.716-.085 1.62-.355 2.499-.583 3.083-.31.778-.663 1.33-1.245 1.914-.58.58-1.14.94-1.91 1.24-.582.228-1.475.499-3.095.572-1.764.08-2.283.097-6.727.097-4.446 0-4.965-.02-6.728-.102-1.62-.085-2.514-.355-3.095-.583-.788-.31-1.33-.663-1.91-1.245-.583-.58-.955-1.14-1.246-1.91-.228-.582-.497-1.475-.581-3.095-.063-1.745-.085-2.284-.085-6.707 0-4.426.022-4.966.085-6.731.084-1.62.353-2.512.581-3.093.291-.79.663-1.33 1.246-1.912.58-.58 1.122-.954 1.91-1.244.581-.23 1.455-.5 3.075-.583 1.765-.062 2.284-.083 6.727-.083l.062.042c4.435 0 4.964.022 6.715.098zM16.995.62c-4.513 0-5.077.02-6.85.1-1.769.083-2.973.361-4.033.772A8.137 8.137 0 0 0 3.17 3.41a8.107 8.107 0 0 0-1.917 2.943c-.41 1.06-.69 2.264-.772 4.034-.083 1.772-.1 2.336-.1 6.85 0 4.513.02 5.077.1 6.85.083 1.767.361 2.973.772 4.032a8.148 8.148 0 0 0 1.917 2.944 8.125 8.125 0 0 0 2.943 1.916c1.06.41 2.266.691 4.034.773 1.772.083 2.336.1 6.85.1 4.513 0 5.077-.021 6.85-.1 1.767-.083 2.973-.363 4.032-.773a8.166 8.166 0 0 0 2.944-1.916 8.113 8.113 0 0 0 1.916-2.944c.41-1.059.691-2.265.773-4.033.083-1.772.1-2.336.1-6.85 0-4.513-.021-5.077-.1-6.85-.083-1.767-.363-2.975-.773-4.033a8.155 8.155 0 0 0-1.916-2.943 8.095 8.095 0 0 0-2.944-1.917c-1.059-.41-2.265-.69-4.033-.772-1.772-.083-2.336-.1-6.85-.1z"/></g></g></svg>